<mxfile host="app.diagrams.net" agent="Mozilla/5.0 (Windows NT 10.0; Win64; x64) AppleWebKit/537.36 (KHTML, like Gecko) Chrome/128.0.0.0 Safari/537.36" version="24.7.8">
  <diagram name="Page-1" id="MWQqguzOlJiIStY0bFs1">
    <mxGraphModel dx="1687" dy="878" grid="1" gridSize="5" guides="1" tooltips="1" connect="0" arrows="1" fold="1" page="1" pageScale="1" pageWidth="800" pageHeight="800" background="#ffffff" math="0" shadow="0">
      <root>
        <mxCell id="0" />
        <mxCell id="1" parent="0" />
        <mxCell id="REj9tXIuePzix-ZfhNkP-1" value="" style="rounded=0;whiteSpace=wrap;html=1;fillColor=none;labelBackgroundColor=none;" parent="1" vertex="1">
          <mxGeometry width="800" height="40" as="geometry" />
        </mxCell>
        <mxCell id="REj9tXIuePzix-ZfhNkP-2" value="" style="endArrow=none;html=1;rounded=0;labelBackgroundColor=none;fontColor=default;" parent="1" edge="1">
          <mxGeometry width="50" height="50" relative="1" as="geometry">
            <mxPoint x="770" y="10" as="sourcePoint" />
            <mxPoint x="790" y="30" as="targetPoint" />
          </mxGeometry>
        </mxCell>
        <mxCell id="REj9tXIuePzix-ZfhNkP-3" value="" style="endArrow=none;html=1;rounded=0;labelBackgroundColor=none;fontColor=default;" parent="1" edge="1">
          <mxGeometry width="50" height="50" relative="1" as="geometry">
            <mxPoint x="790" y="10" as="sourcePoint" />
            <mxPoint x="770" y="30" as="targetPoint" />
          </mxGeometry>
        </mxCell>
        <mxCell id="REj9tXIuePzix-ZfhNkP-9" value="" style="endArrow=none;html=1;rounded=0;labelBackgroundColor=none;fontColor=default;" parent="1" edge="1">
          <mxGeometry width="50" height="50" relative="1" as="geometry">
            <mxPoint x="40" y="40" as="sourcePoint" />
            <mxPoint x="40" as="targetPoint" />
          </mxGeometry>
        </mxCell>
        <mxCell id="REj9tXIuePzix-ZfhNkP-11" value="" style="shape=note;whiteSpace=wrap;html=1;backgroundOutline=1;darkOpacity=0.05;size=10;labelBackgroundColor=none;fillColor=none;" parent="1" vertex="1">
          <mxGeometry x="10" y="10" width="20" height="20" as="geometry" />
        </mxCell>
        <mxCell id="REj9tXIuePzix-ZfhNkP-20" value="" style="endArrow=none;html=1;rounded=0;labelBackgroundColor=none;fontColor=default;" parent="1" edge="1">
          <mxGeometry width="50" height="50" relative="1" as="geometry">
            <mxPoint x="760" y="40" as="sourcePoint" />
            <mxPoint x="760" as="targetPoint" />
          </mxGeometry>
        </mxCell>
        <mxCell id="REj9tXIuePzix-ZfhNkP-21" value="" style="rounded=0;whiteSpace=wrap;html=1;fillColor=none;labelBackgroundColor=none;" parent="1" vertex="1">
          <mxGeometry x="730" y="10" width="20" height="20" as="geometry" />
        </mxCell>
        <mxCell id="REj9tXIuePzix-ZfhNkP-22" value="" style="endArrow=none;html=1;rounded=0;labelBackgroundColor=none;fontColor=default;" parent="1" edge="1">
          <mxGeometry width="50" height="50" relative="1" as="geometry">
            <mxPoint x="720" y="40" as="sourcePoint" />
            <mxPoint x="720" as="targetPoint" />
          </mxGeometry>
        </mxCell>
        <mxCell id="REj9tXIuePzix-ZfhNkP-23" value="" style="endArrow=none;html=1;rounded=0;labelBackgroundColor=none;fontColor=default;" parent="1" edge="1">
          <mxGeometry width="50" height="50" relative="1" as="geometry">
            <mxPoint x="690" y="19.909999999999997" as="sourcePoint" />
            <mxPoint x="710" y="19.909999999999997" as="targetPoint" />
          </mxGeometry>
        </mxCell>
        <mxCell id="REj9tXIuePzix-ZfhNkP-24" value="" style="endArrow=none;html=1;rounded=0;labelBackgroundColor=none;fontColor=default;" parent="1" edge="1">
          <mxGeometry width="50" height="50" relative="1" as="geometry">
            <mxPoint x="680" y="40" as="sourcePoint" />
            <mxPoint x="680" as="targetPoint" />
          </mxGeometry>
        </mxCell>
        <mxCell id="REj9tXIuePzix-ZfhNkP-25" value="" style="rounded=0;whiteSpace=wrap;html=1;fillColor=none;labelBackgroundColor=none;" parent="1" vertex="1">
          <mxGeometry y="40" width="800" height="30" as="geometry" />
        </mxCell>
        <mxCell id="REj9tXIuePzix-ZfhNkP-26" value="&lt;font style=&quot;font-size: 23px;&quot;&gt;File&lt;/font&gt;" style="text;html=1;align=center;verticalAlign=middle;whiteSpace=wrap;rounded=0;fontSize=23;labelBackgroundColor=none;" parent="1" vertex="1">
          <mxGeometry x="5" y="45" width="35" height="20" as="geometry" />
        </mxCell>
        <mxCell id="REj9tXIuePzix-ZfhNkP-27" value="" style="endArrow=none;html=1;rounded=0;labelBackgroundColor=none;fontColor=default;" parent="1" edge="1">
          <mxGeometry width="50" height="50" relative="1" as="geometry">
            <mxPoint x="45" y="70" as="sourcePoint" />
            <mxPoint x="45" y="40" as="targetPoint" />
          </mxGeometry>
        </mxCell>
        <mxCell id="REj9tXIuePzix-ZfhNkP-28" value="&lt;font style=&quot;font-size: 23px;&quot;&gt;Options&lt;/font&gt;" style="text;html=1;align=center;verticalAlign=middle;whiteSpace=wrap;rounded=0;labelBackgroundColor=none;" parent="1" vertex="1">
          <mxGeometry x="50" y="45" width="80" height="20" as="geometry" />
        </mxCell>
        <mxCell id="REj9tXIuePzix-ZfhNkP-29" value="" style="endArrow=none;html=1;rounded=0;labelBackgroundColor=none;fontColor=default;" parent="1" edge="1">
          <mxGeometry width="50" height="50" relative="1" as="geometry">
            <mxPoint x="135" y="70" as="sourcePoint" />
            <mxPoint x="135" y="40" as="targetPoint" />
          </mxGeometry>
        </mxCell>
        <mxCell id="REj9tXIuePzix-ZfhNkP-30" value="&lt;font style=&quot;font-size: 23px;&quot;&gt;Help&lt;/font&gt;" style="text;html=1;align=center;verticalAlign=middle;whiteSpace=wrap;rounded=0;labelBackgroundColor=none;" parent="1" vertex="1">
          <mxGeometry x="140" y="45" width="45" height="20" as="geometry" />
        </mxCell>
        <mxCell id="REj9tXIuePzix-ZfhNkP-31" value="" style="endArrow=none;html=1;rounded=0;labelBackgroundColor=none;fontColor=default;" parent="1" edge="1">
          <mxGeometry width="50" height="50" relative="1" as="geometry">
            <mxPoint x="190" y="70" as="sourcePoint" />
            <mxPoint x="190" y="40" as="targetPoint" />
          </mxGeometry>
        </mxCell>
        <mxCell id="REj9tXIuePzix-ZfhNkP-37" value="" style="rounded=0;whiteSpace=wrap;html=1;fillColor=none;labelBackgroundColor=none;strokeWidth=1;perimeterSpacing=0;" parent="1" vertex="1">
          <mxGeometry y="70" width="800" height="730" as="geometry" />
        </mxCell>
        <mxCell id="REj9tXIuePzix-ZfhNkP-38" value="" style="rounded=0;whiteSpace=wrap;html=1;fillColor=none;labelBackgroundColor=none;" parent="1" vertex="1">
          <mxGeometry x="80" y="130" width="160" height="510" as="geometry" />
        </mxCell>
        <mxCell id="REj9tXIuePzix-ZfhNkP-39" value="" style="rounded=0;whiteSpace=wrap;html=1;fillColor=none;labelBackgroundColor=none;" parent="1" vertex="1">
          <mxGeometry x="240" y="130" width="160" height="510" as="geometry" />
        </mxCell>
        <mxCell id="REj9tXIuePzix-ZfhNkP-40" value="" style="rounded=0;whiteSpace=wrap;html=1;fillColor=none;labelBackgroundColor=none;" parent="1" vertex="1">
          <mxGeometry x="400" y="130" width="160" height="510" as="geometry" />
        </mxCell>
        <mxCell id="REj9tXIuePzix-ZfhNkP-41" value="" style="rounded=0;whiteSpace=wrap;html=1;fillColor=none;labelBackgroundColor=none;" parent="1" vertex="1">
          <mxGeometry x="560" y="130" width="160" height="510" as="geometry" />
        </mxCell>
        <mxCell id="REj9tXIuePzix-ZfhNkP-43" value="" style="rounded=0;whiteSpace=wrap;html=1;fillColor=none;labelBackgroundColor=none;" parent="1" vertex="1">
          <mxGeometry x="80" y="660" width="160" height="40" as="geometry" />
        </mxCell>
        <mxCell id="REj9tXIuePzix-ZfhNkP-44" value="" style="rounded=0;whiteSpace=wrap;html=1;fillColor=none;labelBackgroundColor=none;" parent="1" vertex="1">
          <mxGeometry x="240" y="660" width="160" height="40" as="geometry" />
        </mxCell>
        <mxCell id="REj9tXIuePzix-ZfhNkP-45" value="" style="rounded=0;whiteSpace=wrap;html=1;fillColor=none;labelBackgroundColor=none;" parent="1" vertex="1">
          <mxGeometry x="400" y="660" width="160" height="40" as="geometry" />
        </mxCell>
        <mxCell id="REj9tXIuePzix-ZfhNkP-46" value="" style="rounded=0;whiteSpace=wrap;html=1;fillColor=none;labelBackgroundColor=none;" parent="1" vertex="1">
          <mxGeometry x="560" y="660" width="160" height="40" as="geometry" />
        </mxCell>
        <mxCell id="REj9tXIuePzix-ZfhNkP-47" value="" style="rounded=0;whiteSpace=wrap;html=1;fillColor=none;labelBackgroundColor=none;" parent="1" vertex="1">
          <mxGeometry x="560" y="720" width="160" height="40" as="geometry" />
        </mxCell>
        <mxCell id="REj9tXIuePzix-ZfhNkP-48" value="" style="rounded=0;whiteSpace=wrap;html=1;fillColor=none;labelBackgroundColor=none;" parent="1" vertex="1">
          <mxGeometry x="80" y="100" width="160" height="30" as="geometry" />
        </mxCell>
        <mxCell id="REj9tXIuePzix-ZfhNkP-49" value="" style="rounded=0;whiteSpace=wrap;html=1;fillColor=none;labelBackgroundColor=none;" parent="1" vertex="1">
          <mxGeometry x="240" y="100" width="160" height="30" as="geometry" />
        </mxCell>
        <mxCell id="REj9tXIuePzix-ZfhNkP-50" value="" style="rounded=0;whiteSpace=wrap;html=1;fillColor=none;labelBackgroundColor=none;" parent="1" vertex="1">
          <mxGeometry x="400" y="100" width="160" height="30" as="geometry" />
        </mxCell>
        <mxCell id="REj9tXIuePzix-ZfhNkP-51" value="" style="rounded=0;whiteSpace=wrap;html=1;fillColor=none;labelBackgroundColor=none;" parent="1" vertex="1">
          <mxGeometry x="560" y="100" width="160" height="30" as="geometry" />
        </mxCell>
      </root>
    </mxGraphModel>
  </diagram>
</mxfile>
